<svg width="64" height="57" viewBox="0 0 64 57" fill="none" xmlns="http://www.w3.org/2000/svg">
<path d="M16.0375 0.0440891C17.6397 -0.210681 19.2101 0.657784 19.855 2.15521L32 30.3541L44.145 2.15521C44.7899 0.657784 46.3603 -0.210681 47.9625 0.0440891C49.5646 0.298859 50.7923 1.61227 50.9468 3.23683L52.2268 16.6946H60.4444C62.4081 16.6946 64 18.2963 64 20.272C64 22.2478 62.4081 23.8494 60.4444 23.8494H52.9073L53.5877 31.0042H60.4444C62.4081 31.0042 64 32.6058 64 34.5815C64 36.5573 62.4081 38.1589 60.4444 38.1589H54.2682L55.6875 53.0816C55.8746 55.0483 54.4416 56.7953 52.4868 56.9835C50.5321 57.1717 48.7958 55.7299 48.6088 53.7631L45.1826 17.7404L35.2624 40.7738C34.699 42.082 33.4171 42.9287 32 42.9287C30.5829 42.9287 29.301 42.082 28.7376 40.7738L18.8174 17.7404L15.3912 53.7631C15.2042 55.7299 13.4679 57.1717 11.5132 56.9835C9.5584 56.7953 8.12541 55.0483 8.31246 53.0816L9.73176 38.1589H3.55556C1.59188 38.1589 0 36.5573 0 34.5815C0 32.6058 1.59188 31.0042 3.55556 31.0042H10.4123L11.0927 23.8494H3.55556C1.59188 23.8494 0 22.2478 0 20.272C0 18.2963 1.59188 16.6946 3.55556 16.6946H11.7732L13.0532 3.23683C13.2077 1.61227 14.4354 0.298859 16.0375 0.0440891Z" fill="currentColor"/>
</svg>
